<svg xmlns="http://www.w3.org/2000/svg" viewBox="5 5 14 16" width="32" height="32">
  <!-- Head -->
  <rect x="9" y="6" width="6" height="2" fill="#8B4513"/>
  <rect x="8" y="7" width="1" height="2" fill="#8B4513"/>
  <rect x="15" y="7" width="1" height="2" fill="#8B4513"/>
  <rect x="8" y="8" width="8" height="2" fill="#8B4513"/>
  <!-- Face -->
  <rect x="9" y="10" width="6" height="1" fill="#D2A068"/>
  <rect x="10" y="11" width="4" height="1" fill="#D2A068"/>
  <!-- Eyes -->
  <rect x="10" y="9" width="1" height="1" fill="#ffffff"/>
  <rect x="11" y="9" width="1" height="1" fill="#1a1a1a"/>
  <rect x="13" y="9" width="1" height="1" fill="#ffffff"/>
  <rect x="14" y="9" width="1" height="1" fill="#1a1a1a"/>
  <!-- Mouth -->
  <rect x="11" y="11" width="2" height="1" fill="#5C2D0A"/>
  <!-- Ears -->
  <rect x="7" y="8" width="1" height="1" fill="#8B4513"/>
  <rect x="7" y="9" width="1" height="1" fill="#5C2D0A"/>
  <rect x="16" y="8" width="1" height="1" fill="#8B4513"/>
  <rect x="16" y="9" width="1" height="1" fill="#5C2D0A"/>
  <!-- Body -->
  <rect x="9" y="12" width="6" height="1" fill="#8B4513"/>
  <rect x="9" y="13" width="1" height="1" fill="#8B4513"/>
  <rect x="14" y="13" width="1" height="1" fill="#8B4513"/>
  <rect x="10" y="13" width="4" height="1" fill="#5C2D0A"/>
  <rect x="9" y="14" width="1" height="1" fill="#8B4513"/>
  <rect x="14" y="14" width="1" height="1" fill="#8B4513"/>
  <rect x="10" y="14" width="4" height="1" fill="#5C2D0A"/>
  <rect x="9" y="15" width="1" height="1" fill="#8B4513"/>
  <rect x="14" y="15" width="1" height="1" fill="#8B4513"/>
  <rect x="10" y="15" width="4" height="1" fill="#5C2D0A"/>
  <rect x="10" y="16" width="4" height="1" fill="#8B4513"/>
  <!-- Arms (resting) -->
  <rect x="7" y="12" width="1" height="1" fill="#8B4513"/>
  <rect x="6" y="13" width="1" height="1" fill="#8B4513"/>
  <rect x="5" y="14" width="1" height="1" fill="#8B4513"/>
  <rect x="16" y="12" width="1" height="1" fill="#8B4513"/>
  <rect x="17" y="13" width="1" height="1" fill="#8B4513"/>
  <rect x="18" y="14" width="1" height="1" fill="#8B4513"/>
  <!-- Tail (resting curl) -->
  <rect x="15" y="15" width="1" height="1" fill="#8B4513"/>
  <rect x="16" y="15" width="1" height="1" fill="#8B4513"/>
  <rect x="17" y="14" width="1" height="1" fill="#8B4513"/>
  <rect x="18" y="13" width="1" height="1" fill="#8B4513"/>
  <!-- Legs -->
  <rect x="10" y="17" width="1" height="2" fill="#8B4513"/>
  <rect x="9" y="19" width="2" height="1" fill="#5C2D0A"/>
  <rect x="13" y="17" width="1" height="2" fill="#8B4513"/>
  <rect x="13" y="19" width="2" height="1" fill="#5C2D0A"/>
</svg>
